<svg width="907" height="1000" viewBox="0 0 907 1000" fill="none" xmlns="http://www.w3.org/2000/svg">
<g clip-path="url(#clip0_57:2394)">
<path d="M785.753 226.737C848.895 303.957 844.398 437.157 817.054 568.197C789.53 699.237 739.34 828.297 656.59 854.397C574.019 880.497 458.887 803.817 365.163 737.577C271.259 671.517 198.762 615.897 173.937 539.937C149.112 464.157 172.138 367.857 228.085 292.437C283.852 217.017 372.359 162.297 482.094 145.377C591.828 128.637 722.61 149.697 785.753 226.737Z" fill="#008CFF" fill-opacity="0.2"/>
<path fill-rule="evenodd" clip-rule="evenodd" d="M381.077 473.967C381.077 473.967 316.083 466.667 290.915 513.641C282.445 529.446 219.672 676.016 213.017 733.78C213.017 733.78 197.9 738.56 195.801 746.32H284.851C285.795 746.32 286.646 745.753 287.01 744.881C293.508 729.336 350.528 592.908 350.528 592.908C350.528 592.908 357.86 716.576 359.357 741.843C359.507 744.358 361.59 746.32 364.108 746.32C380.989 746.32 439.789 746.32 439.789 746.32C439.789 746.32 437.702 738.168 422.431 733.78C422.431 733.78 430.689 541.404 407.765 493.238L381.077 473.967Z" fill="url(#paint0_linear_57:2394)"/>
<path fill-rule="evenodd" clip-rule="evenodd" d="M337.891 623.111L345.929 542.013C345.984 541.449 346.463 541.024 347.03 541.039C347.594 541.054 348.052 541.504 348.077 542.071L350.369 593.257L337.891 623.111Z" fill="#13524E"/>
<path fill-rule="evenodd" clip-rule="evenodd" d="M424.005 659.66C424.005 660.89 424.001 662.109 423.997 663.321H354.828L354.612 659.66H424.005ZM232.674 659.66H322.757L321.228 663.321H231.445L231.465 663.262C231.853 662.098 232.244 660.938 232.636 659.774L232.674 659.66Z" fill="#82B5B2"/>
<path d="M331.536 361.323C344.747 361.323 355.456 350.614 355.456 337.404C355.456 324.193 344.747 313.484 331.536 313.484C318.326 313.484 307.617 324.193 307.617 337.404C307.617 350.614 318.326 361.323 331.536 361.323Z" fill="#A8CFCC"/>
<path fill-rule="evenodd" clip-rule="evenodd" d="M329.77 313.545C330.978 318.42 332.723 330.715 323.636 341.578C322.672 340.018 320.929 338.975 318.94 338.975C315.909 338.975 313.449 341.397 313.449 344.38C313.449 347.364 315.909 349.786 318.94 349.786C319.464 349.786 319.972 349.713 320.452 349.578C320.521 351.462 320.033 354.096 317.723 356.925C311.61 352.591 307.617 345.459 307.617 337.4C307.617 324.793 317.392 314.45 329.77 313.545Z" fill="black"/>
<path fill-rule="evenodd" clip-rule="evenodd" d="M311.72 349.51C311.04 349.909 309.327 349.849 308.548 350.005C305.993 350.518 303.453 351.112 300.923 351.737C293.101 353.67 285.39 355.996 278.092 359.451C272.783 361.965 267.224 365.147 264.712 370.719C261.06 378.817 267.55 386.085 275.987 385.324C284.124 384.591 290.51 378.695 295.932 373.152C302.275 366.665 309.518 359.673 314.382 351.932" fill="black"/>
<path fill-rule="evenodd" clip-rule="evenodd" d="M283.711 403.272C279.663 407.586 244.048 446.522 217.288 476.562C208.31 486.722 207.497 501.722 215.324 512.794C215.322 512.798 215.323 512.798 215.323 512.798C222.197 522.524 234.64 526.583 245.927 522.783C258.157 518.662 274.861 509.145 294.299 487.824C304.173 476.992 312.022 467.103 318.5 461.048C318.5 461.048 346.916 470.19 361.532 454.521C361.532 454.521 397.213 500.111 431.744 518.285C445.401 525.386 462.227 520.62 470.13 507.41C473.809 501.312 475.353 493.969 471.213 485.997C453.087 451.079 424.625 424.658 381.122 382.83C372.677 374.709 357.912 363.109 329.314 369.729C318.539 372.223 305.405 380.159 283.711 403.272Z" fill="#A8CFCC"/>
<path fill-rule="evenodd" clip-rule="evenodd" d="M346.383 431.972C346.383 431.972 347.32 431.73 348.425 431.83C349.363 431.915 350.472 432.246 351.043 433.425C351.808 435.011 350.651 436.321 348.887 437.659C345.311 440.372 339.011 442.746 333.433 445.017C332.682 445.321 332.324 446.177 332.628 446.925C332.931 447.673 333.788 448.034 334.535 447.729C340.365 445.357 346.921 442.827 350.658 439.991C353.777 437.626 355.032 434.959 353.678 432.153C352.573 429.863 350.508 429.078 348.689 428.914C347.038 428.765 345.636 429.141 345.636 429.141C344.853 429.347 344.388 430.149 344.593 430.931C344.802 431.712 345.603 432.179 346.383 431.972Z" fill="#82B5B2"/>
<path fill-rule="evenodd" clip-rule="evenodd" d="M357.715 425.994C357.715 425.994 359.457 424.305 361.829 422.957C363.311 422.116 365.046 421.384 366.748 421.393C367.444 421.394 368.099 421.696 368.549 422.22C368.999 422.744 369.197 423.438 369.091 424.12C368.805 425.764 368.022 427.996 366.001 430.125C363.223 433.056 356.192 441.902 333.798 444.738C332.996 444.839 332.429 445.573 332.531 446.374C332.634 447.176 333.366 447.744 334.168 447.643C357.802 444.649 365.193 435.234 368.128 432.141C370.654 429.48 371.616 426.685 371.982 424.594C372.22 423.039 371.778 421.487 370.775 420.315C369.768 419.143 368.304 418.467 366.759 418.465C364.563 418.454 362.297 419.323 360.383 420.411C357.663 421.955 355.672 423.895 355.672 423.895C355.094 424.458 355.079 425.386 355.643 425.965C356.206 426.545 357.133 426.558 357.715 425.994Z" fill="#82B5B2"/>
<path fill-rule="evenodd" clip-rule="evenodd" d="M361.4 435.587C361.4 435.587 357.648 445.163 353.944 448.864C353.373 449.435 353.373 450.363 353.944 450.935C354.515 451.506 355.445 451.506 356.016 450.935C360.005 446.946 364.123 436.666 364.123 436.666C364.42 435.915 364.054 435.063 363.3 434.765C362.549 434.467 361.696 434.836 361.4 435.587Z" fill="#82B5B2"/>
<path fill-rule="evenodd" clip-rule="evenodd" d="M350.098 441.901V445.348C350.098 446.156 350.753 446.812 351.562 446.812C352.367 446.812 353.026 446.156 353.026 445.348V441.901C353.026 441.094 352.367 440.437 351.562 440.437C350.753 440.437 350.098 441.094 350.098 441.901Z" fill="#82B5B2"/>
<path fill-rule="evenodd" clip-rule="evenodd" d="M360.447 386.577C360.447 386.577 358.105 387.548 357.003 390.218C356.326 391.857 356.077 394.187 357.358 397.387C358.837 401.074 362.64 411.987 357.471 420.388C357.047 421.076 357.263 421.979 357.947 422.402C358.639 422.826 359.54 422.611 359.964 421.923C365.725 412.564 361.721 400.405 360.074 396.297C359.188 394.079 359.239 392.472 359.708 391.336C360.327 389.845 361.597 389.27 361.597 389.27C362.34 388.952 362.687 388.091 362.369 387.348C362.05 386.605 361.19 386.26 360.447 386.577Z" fill="#82B5B2"/>
<path fill-rule="evenodd" clip-rule="evenodd" d="M304.76 475.99C301.543 479.691 298.068 483.688 294.299 487.824C274.861 509.145 258.157 518.662 245.927 522.783C234.64 526.583 222.197 522.524 215.323 512.798C215.323 512.798 215.322 512.798 215.324 512.794C207.497 501.722 208.31 486.722 217.288 476.562C244.048 446.522 279.663 407.586 283.711 403.272C305.405 380.159 318.539 372.223 329.314 369.729C357.912 363.109 372.677 374.709 381.122 382.83C424.625 424.658 453.087 451.079 471.213 485.997C475.353 493.969 473.809 501.312 470.13 507.41C463.746 518.08 451.539 523.241 439.885 521.089L429.983 517.337C418.058 510.748 406.067 501.045 395.522 491.221C389.519 484.983 385.404 480.232 385.404 480.232L402.897 437.035L374.724 417.058C373.538 408.885 373.069 403.662 370.54 398.246C369.852 396.764 369.006 395.268 367.948 393.693C363.033 386.362 359.936 390.726 359.936 390.726C357.652 387.906 355.533 386.608 354.12 386.012C353.373 385.715 352.535 385.767 351.832 386.154C351.133 386.542 350.642 387.223 350.496 388.011C350.156 389.949 351.341 392.134 351.982 393.137C352.18 393.441 352.407 393.725 352.659 393.986C366.543 408.338 358.867 424.449 358.867 424.449C352.008 432.893 339.76 432.692 339.76 432.692C330.803 433.413 325.17 430.652 321.975 428.134C317.225 424.401 310.942 423.242 305.173 425.037C291.091 429.525 275.897 442.893 275.897 442.893L304.76 475.99Z" fill="url(#paint1_linear_57:2394)"/>
<path fill-rule="evenodd" clip-rule="evenodd" d="M318.36 461.06L332.713 445.007C332.713 445.007 350.008 452.903 355.487 446.726L362.438 455.882C361.725 455 361.351 454.519 361.351 454.519C347.058 469.845 319.557 461.436 318.36 461.06Z" fill="#82B5B2"/>
<path fill-rule="evenodd" clip-rule="evenodd" d="M279.198 440.235C277.171 441.844 275.978 442.894 275.978 442.894L278.34 445.602L235.42 481.182C234.642 481.826 233.488 481.716 232.843 480.94C232.198 480.16 232.306 479.007 233.084 478.363L278.747 440.51C278.887 440.394 279.039 440.302 279.198 440.235ZM400.869 435.541C401.254 435.565 401.638 435.711 401.953 435.984L443.75 472.204C444.511 472.865 444.596 474.022 443.933 474.785C443.271 475.549 442.114 475.631 441.353 474.97L401.576 440.501L402.978 437.036L400.869 435.541ZM283.361 437.063C283.577 433.539 284.188 426.644 285.846 420.611C286.025 420.054 286.548 419.682 287.133 419.696C287.717 419.71 288.222 420.108 288.373 420.672C289.273 424.011 290.506 428.606 291.337 431.704C288.392 433.503 285.67 435.376 283.361 437.063ZM384.244 423.754L386.206 414.414C386.279 414.064 386.561 413.796 386.913 413.738C387.264 413.68 387.615 413.845 387.795 414.152C388.904 416.602 390.573 421.321 391.382 428.816L384.244 423.754Z" fill="#13524E"/>
<path d="M338.678 433.379C351.518 433.379 361.927 423.113 361.927 410.449C361.927 397.786 351.518 387.52 338.678 387.52C325.838 387.52 315.429 397.786 315.429 410.449C315.429 423.113 325.838 433.379 338.678 433.379Z" fill="#FFCD80"/>
<path d="M338.817 429.519C349.576 429.519 358.299 420.916 358.299 410.305C358.299 399.693 349.576 391.09 338.817 391.09C328.058 391.09 319.335 399.693 319.335 410.305C319.335 420.916 328.058 429.519 338.817 429.519Z" fill="#FFB000"/>
<path d="M332.425 417.858C334.582 419.427 337.043 420.124 339.848 420.019C343.188 419.815 344.764 418.557 344.686 416.24C344.563 414.354 343.375 413.271 341.122 412.992C340.07 412.902 338.947 412.816 337.714 412.699C335.499 412.454 333.756 411.721 332.526 410.533C331.256 409.311 330.58 407.774 330.459 405.924C330.316 403.717 330.919 401.902 332.34 400.473C333.69 399.048 335.694 398.269 338.315 398.101C341.518 398.011 344.342 398.761 346.787 400.316L344.837 403.592C342.851 402.443 340.687 401.873 338.385 401.954C337.199 402.014 336.212 402.349 335.46 402.994C334.673 403.641 334.302 404.588 334.345 405.799C334.393 406.547 334.723 407.173 335.337 407.749C335.951 408.325 336.911 408.669 338.185 408.855C338.875 408.927 339.854 409.021 341.085 409.102C343.513 409.301 345.33 410.066 346.57 411.396C347.772 412.692 348.449 414.229 348.567 416.044C348.773 420.89 345.915 423.498 340.062 423.864C336.289 424.054 332.942 423.045 330.061 420.869L332.425 417.858Z" fill="#FFCD80"/>
<path fill-rule="evenodd" clip-rule="evenodd" d="M337.58 394.893L336.91 426.756L341.35 426.756L341.349 394.893L337.58 394.893Z" fill="#FFCD80"/>
<path fill-rule="evenodd" clip-rule="evenodd" d="M247.54 690.98C245.33 690.581 243.652 688.645 243.652 686.321V676.848C243.652 674.234 245.775 672.112 248.388 672.112H301.589C304.204 672.112 306.326 674.234 306.326 676.848V686.321C306.326 688.645 304.648 690.581 302.438 690.98C304.648 691.383 306.326 693.319 306.326 695.644V705.117C306.326 707.441 304.648 709.374 302.438 709.776C304.648 710.175 306.326 712.112 306.326 714.436V723.909C306.326 726.233 304.648 728.169 302.438 728.568C304.648 728.971 306.326 730.904 306.326 733.228V742.701C306.326 745.314 304.204 747.437 301.589 747.437H248.388C245.775 747.437 243.652 745.314 243.652 742.701V733.228C243.652 730.904 245.33 728.971 247.54 728.568C245.33 728.169 243.652 726.233 243.652 723.909V714.436C243.652 712.112 245.33 710.175 247.54 709.776C245.33 709.374 243.652 707.441 243.652 705.117V695.644C243.652 693.319 245.33 691.383 247.54 690.98Z" fill="#FFCD80"/>
<path fill-rule="evenodd" clip-rule="evenodd" d="M293.674 672.112V687.269H305.961C306.02 687.269 306.078 687.273 306.136 687.276C305.767 689.077 304.377 690.505 302.6 690.929H302.505V690.951C302.452 690.962 302.399 690.973 302.345 690.98C302.399 690.991 302.452 691.002 302.505 691.013V706.057H305.961C306.02 706.057 306.079 706.061 306.137 706.065C305.77 707.862 304.386 709.289 302.614 709.718H298.7V724.849H305.961C306.02 724.849 306.079 724.849 306.137 724.857C305.773 726.647 304.395 728.074 302.629 728.51H292.921V747.437H289.26V728.51H285.797V747.437H282.136V728.51H257.827V747.437H254.166V728.51H247.163C245.394 728.074 244.014 726.643 243.652 724.849H266.652V709.718H247.177C245.402 709.289 244.017 707.858 243.653 706.057H248.926V690.929H247.192C245.411 690.505 244.02 689.07 243.654 687.269H259.026V672.112H262.687V687.269H282.581V672.112H286.241V687.269H290.014V672.112H293.674ZM270.312 709.718V724.849H273.079V709.718H270.312ZM276.739 709.718V724.849H295.04V709.718H276.739ZM252.586 690.929V706.057H279.876V690.929H252.586ZM283.536 690.929V706.057H298.845V690.929H283.536Z" fill="#FDA425"/>
<path fill-rule="evenodd" clip-rule="evenodd" d="M739.579 438.738C737.075 437.502 735.351 434.922 735.351 431.942V416.793C735.351 412.612 738.744 409.218 742.925 409.218H857.954C862.134 409.218 865.527 412.612 865.527 416.793V431.942C865.527 434.922 863.803 437.502 861.296 438.738C863.803 439.975 865.527 442.555 865.527 445.535V460.685C865.527 463.305 864.195 465.616 862.17 466.976C864.195 468.337 865.527 470.647 865.527 473.267V488.418C865.527 491.038 864.195 493.348 862.17 494.71C864.195 496.068 865.527 498.381 865.527 500.998V516.148C865.527 518.769 864.195 521.079 862.17 522.44C864.195 523.802 865.527 526.112 865.527 528.732V543.883C865.527 546.5 864.195 548.813 862.17 550.175C864.195 551.533 865.527 553.846 865.527 556.463V571.613C865.527 574.234 864.195 576.544 862.17 577.905C864.195 579.267 865.527 581.577 865.527 584.197V599.347C865.527 601.965 864.195 604.278 862.17 605.636C864.195 606.998 865.527 609.307 865.527 611.928V627.078C865.527 629.699 864.195 632.009 862.17 633.37C864.195 634.732 865.527 637.042 865.527 639.662V654.812C865.527 657.43 864.195 659.743 862.17 661.101C864.195 662.463 865.527 664.772 865.527 667.393V682.543C865.527 685.164 864.195 687.474 862.17 688.835C864.195 690.193 865.527 692.507 865.527 695.127V710.274C865.527 712.895 864.195 715.208 862.17 716.566C864.195 717.928 865.527 720.237 865.527 722.858V738.008C865.527 742.188 862.134 745.581 857.954 745.581H742.925C738.744 745.581 735.351 742.188 735.351 738.008V722.858C735.351 720.237 736.684 717.928 738.708 716.566C736.684 715.208 735.351 712.895 735.351 710.274V695.127C735.351 692.507 736.684 690.193 738.708 688.835C736.684 687.474 735.351 685.164 735.351 682.543V667.393C735.351 664.772 736.684 662.463 738.708 661.101C736.684 659.743 735.351 657.43 735.351 654.812V639.662C735.351 637.042 736.684 634.732 738.708 633.37C736.684 632.009 735.351 629.699 735.351 627.078V611.928C735.351 609.307 736.684 606.998 738.708 605.636C736.684 604.278 735.351 601.965 735.351 599.347V584.197C735.351 581.577 736.684 579.267 738.708 577.905C736.684 576.544 735.351 574.234 735.351 571.613V556.463C735.351 553.846 736.684 551.533 738.708 550.175C736.684 548.813 735.351 546.5 735.351 543.883V528.732C735.351 526.112 736.684 523.802 738.708 522.44C736.684 521.079 735.351 518.769 735.351 516.148V500.998C735.351 498.381 736.684 496.068 738.708 494.71C736.684 493.348 735.351 491.038 735.351 488.418V473.267C735.351 470.647 736.684 468.337 738.708 466.976C736.684 465.616 735.351 463.305 735.351 460.685V445.535C735.351 442.555 737.075 439.975 739.579 438.738Z" fill="#FFCD80"/>
<path fill-rule="evenodd" clip-rule="evenodd" d="M830.243 409.218V434.895H844.262C844.449 434.084 845.177 433.477 846.045 433.477C846.912 433.477 847.641 434.084 847.827 434.895H865.009C864.35 436.448 863.19 437.737 861.729 438.555H847.875V463.413H865.1C864.537 464.873 863.534 466.115 862.253 466.976C862.3 467.008 862.344 467.04 862.392 467.074H859.182V491.756C859.182 491.814 859.178 491.873 859.174 491.931H864.745C864.156 493.051 863.296 494.007 862.253 494.71C862.641 494.969 863.003 495.266 863.336 495.592H844.02V519.069H865.023C864.449 520.445 863.475 521.617 862.253 522.44C862.388 522.532 862.523 522.631 862.652 522.729H855.016V546.774H865.034C864.46 548.165 863.482 549.344 862.253 550.175C862.377 550.255 862.498 550.343 862.619 550.434H842.022V574.516H865.034C864.456 575.899 863.482 577.078 862.253 577.905C862.381 577.993 862.505 578.081 862.626 578.176H854.258V602.481H864.928C864.346 603.765 863.413 604.856 862.253 605.636C862.483 605.793 862.706 605.962 862.919 606.141H838.427V629.886H865.071C864.5 631.309 863.512 632.525 862.253 633.37C862.337 633.425 862.417 633.484 862.498 633.546H849.072V657.269H865.199C864.69 658.751 863.739 660.025 862.498 660.929H837.267V685.395H865.053C864.482 686.8 863.497 687.997 862.253 688.835C862.355 688.905 862.458 688.978 862.56 689.055H851.341V712.77H865.188C864.668 714.256 863.702 715.53 862.447 716.43H825.422V745.581H821.762V716.43H814.368V745.581H810.708V716.43H762.63V745.581H758.969V716.43H738.596C737.34 715.53 736.374 714.256 735.854 712.77H742.359V689.055H738.482C738.581 688.978 738.684 688.905 738.79 688.835C737.545 687.997 736.561 686.8 735.986 685.395H759.5V660.929H738.545C737.304 660.025 736.348 658.751 735.84 657.269H744.99V633.546H738.541C738.621 633.484 738.706 633.425 738.79 633.37C737.531 632.525 736.539 631.309 735.971 629.886H755.851V606.141H738.12C738.336 605.962 738.556 605.793 738.79 605.636C737.63 604.856 736.696 603.765 736.11 602.481H744.068V578.176H738.413C738.537 578.081 738.662 577.993 738.79 577.905C737.56 577.078 736.583 575.899 736.008 574.516H757.168V550.434H738.424C738.545 550.343 738.665 550.255 738.79 550.175C737.556 549.344 736.579 548.165 736.004 546.774H741.517V522.729H738.387C738.519 522.631 738.654 522.532 738.79 522.44C737.564 521.617 736.594 520.445 736.015 519.069H747.974V495.592H737.706C738.039 495.266 738.402 494.969 738.79 494.71C737.747 494.007 736.886 493.051 736.297 491.931H769.507V467.074H750.763C750.525 467.186 750.261 467.249 749.983 467.249C749.701 467.249 749.438 467.186 749.2 467.074H738.647C738.695 467.04 738.742 467.008 738.79 466.976C737.509 466.115 736.506 464.873 735.938 463.413H748.153V438.555H739.313C737.853 437.737 736.689 436.448 736.03 434.895H748.197C748.387 434.084 749.112 433.477 749.983 433.477C750.851 433.477 751.579 434.084 751.766 434.895H774.767V409.218H778.427V434.895H782.399V409.218H786.059V434.895H796.579C796.766 434.084 797.494 433.477 798.365 433.477C799.233 433.477 799.961 434.084 800.148 434.895H805.697C805.887 434.084 806.612 433.477 807.483 433.477C808.351 433.477 809.079 434.084 809.266 434.895H826.583V409.218H830.243ZM746.019 689.055V712.77H778.757V689.055H746.019ZM782.417 689.055V712.77H788.01V689.055H782.417ZM791.671 689.055V712.77H847.681V689.055H791.671ZM763.16 660.929V685.395H797.161V660.929H763.16ZM826.623 660.929H800.821V685.395H826.612V661.123L826.623 660.929ZM830.272 685.395H833.607V660.929H830.261C830.269 660.991 830.272 661.057 830.272 661.123V685.395ZM822.428 633.546V657.269H845.411V633.546H822.428ZM782.52 657.269H818.768V633.546H782.487C782.509 633.656 782.52 633.769 782.52 633.883V657.269ZM778.889 633.546H748.651V657.269H778.859V633.883C778.859 633.773 778.867 633.659 778.889 633.55V633.546ZM808.786 606.141V629.886H834.767V606.141H808.786ZM800.518 606.141V629.886H805.126V606.141H800.518ZM759.511 606.141V629.886H796.857V606.141H759.511ZM775.54 578.176V602.481H820.342V578.176H775.54ZM747.728 578.176V602.481H771.879V578.176H747.728ZM824.002 578.176V602.481H850.598V578.176H824.002ZM792.527 550.434V574.516H796.158V550.434H792.527ZM774.028 574.516H788.867V550.434H760.829V574.516H773.391C773.493 574.497 773.6 574.487 773.709 574.487C773.819 574.487 773.925 574.497 774.028 574.516ZM799.818 550.434V574.516H838.362V550.434H799.818ZM840.737 546.774H851.356V522.729H821.392V546.774H839.646C839.818 546.719 840.001 546.69 840.192 546.69C840.382 546.69 840.565 546.719 840.737 546.774ZM812.575 522.729V546.774H817.732V522.729H812.575ZM745.177 522.729V546.774H781.041V522.729H745.177ZM784.701 522.729V546.774H808.914V522.729H784.701ZM751.634 495.592V519.069H756.103V495.592H751.634ZM801.894 495.592V519.069H840.36V495.592H801.894ZM759.764 495.592V519.069H798.234V495.592H759.764ZM779.646 467.074H773.168V491.931H779.657C779.65 491.873 779.646 491.814 779.646 491.756V467.074ZM823.9 467.074H808.263C808.029 467.186 807.761 467.249 807.483 467.249C807.201 467.249 806.938 467.186 806.7 467.074H799.145C798.907 467.186 798.643 467.249 798.365 467.249C798.083 467.249 797.82 467.186 797.582 467.074H783.307V491.756C783.307 491.814 783.307 491.873 783.299 491.931H823.907C823.9 491.873 823.9 491.814 823.9 491.756V467.074ZM855.521 467.074H846.828C846.59 467.186 846.326 467.249 846.045 467.249C845.766 467.249 845.499 467.186 845.265 467.074H827.56V491.756C827.56 491.814 827.556 491.873 827.549 491.931H855.528C855.525 491.873 855.521 491.814 855.521 491.756V467.074ZM751.813 438.555V463.413H796.535V438.555H751.813ZM800.195 438.555V463.413H805.653V438.555H800.195ZM809.313 438.555V463.413H844.214V438.555H809.313Z" fill="#FDA425"/>
<path fill-rule="evenodd" clip-rule="evenodd" d="M544.86 606.66C542.836 605.302 541.504 602.988 541.504 600.371V585.221C541.504 581.041 544.897 577.644 549.077 577.644H664.103C668.287 577.644 671.68 581.041 671.68 585.221V600.371C671.68 602.988 670.347 605.302 668.323 606.66C670.347 608.021 671.68 610.331 671.68 612.952V628.102C671.68 630.723 670.347 633.032 668.323 634.394C670.347 635.752 671.68 638.065 671.68 640.686V655.833C671.68 658.453 670.347 660.767 668.323 662.125C670.347 663.486 671.68 665.796 671.68 668.417V683.567C671.68 686.188 670.347 688.497 668.323 689.859C670.347 691.217 671.68 693.53 671.68 696.148V711.298C671.68 713.918 670.347 716.228 668.323 717.59C670.347 718.951 671.68 721.261 671.68 723.882V739.032C671.68 743.212 668.287 746.605 664.103 746.605H549.077C544.897 746.605 541.504 743.212 541.504 739.032V723.882C541.504 721.261 542.836 718.951 544.86 717.59C542.836 716.228 541.504 713.918 541.504 711.298V696.148C541.504 693.53 542.836 691.217 544.86 689.859C542.836 688.497 541.504 686.188 541.504 683.567V668.417C541.504 665.796 542.836 663.486 544.86 662.125C542.836 660.767 541.504 658.453 541.504 655.833V640.686C541.504 638.065 542.836 635.752 544.86 634.394C542.836 633.032 541.504 630.723 541.504 628.102V612.952C541.504 610.331 542.836 608.021 544.86 606.66Z" fill="#FFCD80"/>
<path fill-rule="evenodd" clip-rule="evenodd" d="M644.708 603.549H671.04C670.455 604.815 669.529 605.891 668.383 606.66C668.632 606.828 668.87 607.011 669.101 607.209H658.24V630.91V630.913H671.198C670.631 632.337 669.639 633.549 668.383 634.394C668.467 634.453 668.555 634.511 668.639 634.574H646.963V658.117C646.963 658.223 646.956 658.325 646.937 658.424H671.282C670.737 659.921 669.734 661.199 668.442 662.085H661.762V685.785C661.762 685.888 661.751 685.99 661.736 686.089H671.308C670.781 687.579 669.803 688.853 668.537 689.749H648.592V713.867H671.289C670.751 715.364 669.756 716.638 668.471 717.528H660.865V746.605H657.205V717.528H633.592C633.592 717.56 633.595 717.59 633.595 717.619V746.605H629.935V717.619C629.935 717.59 629.935 717.56 629.935 717.528H611.882C611.648 717.637 611.392 717.696 611.121 717.696C610.847 717.696 610.59 717.637 610.356 717.528H586.904V746.605H583.244V717.528H576.846V746.605H573.185V717.528H544.829C543.544 716.638 542.549 715.364 542.011 713.867H567.267V689.749H544.763C543.5 688.853 542.519 687.579 541.992 686.089H551.289V662.085H544.862C543.566 661.199 542.563 659.921 542.018 658.424H564.489V634.574H544.661C544.748 634.511 544.833 634.453 544.92 634.394C543.661 633.549 542.673 632.337 542.102 630.913H550.107V607.209H544.203C544.43 607.011 544.668 606.828 544.92 606.66C543.771 605.891 542.849 604.815 542.259 603.549H559.086V577.644H562.746V603.549H566.494V577.644H570.155V603.549H603.771V577.644H607.431V603.549H641.048V577.644H644.708V603.549ZM570.927 689.749V713.867H609.291V689.749H570.927ZM612.951 689.749V713.867H637.684V689.749H612.951ZM641.344 689.749V713.867H644.931V689.749H641.344ZM554.95 662.085V686.089H584.562V662.085H554.95ZM624.13 662.085H588.222V686.089H624.229C624.166 685.902 624.13 685.701 624.13 685.492V662.085ZM658.101 662.085H627.79V685.492C627.79 685.701 627.757 685.902 627.691 686.089H658.123C658.109 685.99 658.101 685.888 658.101 685.785V662.085ZM568.149 634.574V658.424H596.275V634.574H568.149ZM599.935 634.574V658.424H604.262V634.574H599.935ZM643.303 634.574H607.922V658.424H625.396C625.572 658.366 625.762 658.336 625.96 658.336C626.158 658.336 626.348 658.366 626.527 658.424H643.332C643.314 658.325 643.303 658.223 643.303 658.117V634.574ZM553.767 607.209V630.913H586V607.209H553.767ZM589.661 607.209V630.913H618.804V607.209H589.661ZM622.464 607.209V630.913H627.362V607.209H622.464ZM654.58 607.209H631.022V630.913H654.58V630.91V607.209Z" fill="#FDA425"/>
<path fill-rule="evenodd" clip-rule="evenodd" d="M671.69 498.238H706.949C767.612 498.238 816.865 555.427 816.865 625.866C816.865 690.858 775.002 745.577 720.87 753.494C716.331 754.16 671.928 753.494 671.928 753.494C611.265 753.494 562.012 696.305 562.012 625.866C562.012 555.518 611.137 498.384 671.69 498.238Z" fill="#FDA425"/>
<path d="M671.925 753.495C732.629 753.495 781.839 696.353 781.839 625.866C781.839 555.379 732.629 498.238 671.925 498.238C611.222 498.238 562.012 555.379 562.012 625.866C562.012 696.353 611.222 753.495 671.925 753.495Z" fill="#FFCD80"/>
<path fill-rule="evenodd" clip-rule="evenodd" d="M672.443 550.021L668.647 549.81L668.735 544.147L675.356 544.516C676.924 544.603 678.169 545.941 678.145 547.505L677.998 557.082C683.789 557.665 689.335 558.906 694.629 560.8C701.393 563.217 707.753 566.701 713.703 571.247C714.378 571.757 714.798 572.531 714.869 573.359C714.932 574.186 714.639 574.987 714.054 575.554L701.093 588.118C700.115 589.063 698.575 589.135 697.443 588.285C691.574 583.883 684.976 581.033 677.649 579.729L677.158 611.644C704.409 618.962 717.343 632.792 716.67 652.374C716.347 663.013 712.249 671.614 704.422 678.149C697.268 684.351 687.793 688.074 675.963 689.226L675.709 705.683C675.685 707.244 674.401 708.438 672.833 708.351L666.333 707.989L666.42 702.332L670.094 702.537L670.342 686.437C670.364 685.003 671.451 683.859 672.878 683.768C684.513 683.011 693.775 679.73 700.661 673.767C707.297 668.226 710.737 660.957 711.012 651.962C711.617 634.344 698.928 622.811 673.715 616.557C672.386 616.223 671.442 615.001 671.463 613.646L672.038 576.304C672.05 575.523 672.387 574.797 672.964 574.29C673.54 573.79 674.309 573.554 675.089 573.652C683.845 574.69 691.724 577.599 698.717 582.367L707.645 573.714C702.994 570.512 698.089 567.98 692.916 566.136C687.268 564.114 681.32 562.911 675.056 562.508C673.503 562.409 672.272 561.075 672.296 559.52L672.443 550.021ZM676.315 666.326C680.448 665.309 683.483 663.722 685.33 661.432C686.483 659.952 687.335 658.262 687.887 656.367L693.326 658.178C692.566 660.739 691.402 663.024 689.816 665.067C686.786 668.816 681.552 671.432 673.974 672.615C673.138 672.744 672.27 672.49 671.612 671.914C670.961 671.339 670.587 670.507 670.6 669.654L670.909 649.639L676.568 649.954L676.315 666.326ZM646.58 584.527C647.611 582.023 648.94 579.966 650.534 578.341C650.573 578.3 650.619 578.26 650.657 578.22C654.248 574.999 658.483 573.26 663.347 573.004C664.143 572.964 664.942 573.269 665.533 573.834C666.123 574.406 666.452 575.194 666.44 575.992L666.187 592.382L660.528 592.067L660.727 579.144C658.459 579.732 656.417 580.836 654.595 582.454C653.463 583.626 652.545 585.12 651.805 586.913C651.789 586.961 651.766 587.008 651.742 587.055C650.857 588.907 650.427 591.19 650.386 593.871L644.727 593.556C644.782 590.004 645.419 587 646.58 584.527Z" fill="#FDA31F"/>
<path fill-rule="evenodd" clip-rule="evenodd" d="M648.532 605.652C645.793 602.314 644.422 598.289 644.495 593.552L650.154 593.867C650.104 597.116 650.979 599.89 652.862 602.175L652.929 602.257C654.4 604.18 656.795 605.766 660.064 607.135L660.296 592.064L665.955 592.379L665.664 611.274C665.651 612.151 665.229 612.957 664.524 613.457C663.826 613.951 662.914 614.088 662.069 613.817C655.535 611.721 651.067 608.923 648.532 605.652Z" fill="#FDA31F"/>
<path fill-rule="evenodd" clip-rule="evenodd" d="M676.461 636.405L676.252 649.952L670.594 649.637L670.855 632.653C670.868 631.825 671.244 631.058 671.881 630.555C672.525 630.052 673.362 629.862 674.178 630.041C682.06 631.769 687.293 634.61 690.059 638.173L690.118 638.261C692.805 641.995 694.128 646.211 694.055 650.918C694.015 653.55 693.659 655.971 693.011 658.175L687.572 656.365C688.092 654.613 688.364 652.691 688.397 650.603C688.449 647.221 687.525 644.19 685.61 641.504C683.87 639.288 680.794 637.651 676.461 636.405Z" fill="#FDA31F"/>
<path fill-rule="evenodd" clip-rule="evenodd" d="M659.611 632.181C633.414 624.868 621.125 611.419 622.014 592.594C622.417 581.238 626.197 572.553 633.183 566.462C639.577 560.89 648.751 557.482 660.778 556.408L660.929 546.564C660.953 545.001 662.238 543.803 663.798 543.89L668.435 544.148L668.348 549.811L666.545 549.711L666.398 559.209C666.376 560.649 665.282 561.8 663.847 561.883C652.046 562.601 643.07 565.505 636.991 570.804C631.073 575.967 628.017 583.396 627.671 593.06C626.873 609.922 638.939 621.07 663.075 627.306C664.389 627.645 665.326 628.86 665.305 630.203L664.702 669.343C664.69 670.141 664.337 670.879 663.746 671.385C663.147 671.89 662.355 672.107 661.56 671.99C654.488 670.93 648.512 669.011 643.641 666.275C639.353 664.099 635.526 661.482 632.154 658.418L621.173 666.95C626.35 670.956 632.105 674.413 638.414 677.326C645.778 680.643 653.535 682.576 661.692 683.139C663.245 683.25 664.468 684.577 664.444 686.126L664.196 702.226L666.12 702.333L666.033 707.99L661.275 707.725C659.715 707.638 658.469 706.303 658.493 704.743L658.743 688.552C650.9 687.728 643.41 685.7 636.249 682.474C628.246 678.783 621.12 674.28 614.841 668.972C614.182 668.414 613.793 667.587 613.791 666.733C613.781 665.879 614.165 665.083 614.825 664.568L630.472 652.414C631.577 651.549 633.198 651.681 634.228 652.726C637.595 656.129 641.555 658.971 646.084 661.264L646.204 661.325C649.812 663.361 654.111 664.86 659.092 665.845L659.611 632.181Z" fill="#FDA31F"/>
<path fill-rule="evenodd" clip-rule="evenodd" d="M666.504 523.495C710.84 523.495 746.449 569.603 746.449 626.025C746.449 682.444 710.84 728.552 666.504 728.552C664.888 728.552 663.574 729.864 663.574 731.48C663.574 733.096 664.888 734.411 666.504 734.411C713.646 734.411 752.303 686.013 752.303 626.025C752.303 566.034 713.646 517.639 666.504 517.639C664.888 517.639 663.574 518.951 663.574 520.567C663.574 522.183 664.888 523.495 666.504 523.495Z" fill="#FDA425"/>
<path fill-rule="evenodd" clip-rule="evenodd" d="M666.368 728.552C622.03 728.552 586.423 682.444 586.423 626.025C586.423 569.603 622.03 523.495 666.368 523.495C667.984 523.495 669.295 522.183 669.295 520.567C669.295 518.951 667.984 517.639 666.368 517.639C619.227 517.639 580.567 566.034 580.567 626.025C580.567 686.013 619.227 734.411 666.368 734.411C667.984 734.411 669.295 733.096 669.295 731.48C669.295 729.864 667.984 728.552 666.368 728.552Z" fill="#FDA425"/>
<path fill-rule="evenodd" clip-rule="evenodd" d="M752.388 743.02H710.448C708.834 743.02 707.52 741.706 707.52 740.092C707.52 738.474 708.834 737.163 710.448 737.163H760.825C761.165 737.163 761.491 737.222 761.795 737.328C758.749 739.396 755.613 741.296 752.388 743.02ZM800.235 693.712C799.174 695.699 798.072 697.654 796.923 699.568H756.648C755.031 699.568 753.72 698.258 753.72 696.64C753.72 695.022 755.031 693.712 756.648 693.712H800.235ZM808.182 675.835C807.465 677.815 806.703 679.766 805.909 681.691H760.825C759.207 681.691 757.897 680.381 757.897 678.763C757.897 677.149 759.207 675.835 760.825 675.835H808.182ZM816.561 616.395C816.685 618.338 816.769 620.289 816.817 622.251H776.601C774.983 622.251 773.673 620.941 773.673 619.323C773.673 617.709 774.983 616.395 776.601 616.395H816.561ZM810.162 581.922C810.77 583.854 811.345 585.809 811.875 587.778H768.061C766.447 587.778 765.133 586.468 765.133 584.85C765.133 583.236 766.447 581.922 768.061 581.922H810.162ZM804.152 566.274C805.027 568.199 805.865 570.15 806.656 572.13H766.484C764.869 572.13 763.555 570.82 763.555 569.202C763.555 567.588 764.869 566.274 766.484 566.274H804.152ZM765.195 517.639C767.721 519.477 770.177 521.428 772.564 523.496H726.224C724.61 523.496 723.296 522.182 723.296 520.567C723.296 518.95 724.61 517.639 726.224 517.639H765.195Z" fill="#FFCD80"/>
<path fill-rule="evenodd" clip-rule="evenodd" d="M574.686 286.789C577.276 277.854 584.659 252.312 589.987 240.898L620.653 257.535C620.653 257.535 607.441 305.268 604.592 318.957L568.925 310.475C570.008 303.017 572.079 295.779 574.686 286.789Z" fill="#82B5B2"/>
<path d="M590.709 296.574C596.58 296.574 601.34 291.593 601.34 285.448C601.34 279.304 596.58 274.323 590.709 274.323C584.838 274.323 580.078 279.304 580.078 285.448C580.078 291.593 584.838 296.574 590.709 296.574Z" fill="#A8CFCC" fill-opacity="0.63"/>
<path fill-rule="evenodd" clip-rule="evenodd" d="M583.29 299.131C585.022 294.305 594.681 269.272 600.64 261.749L628.397 277.349C628.397 277.349 613.437 317.098 610.025 328.544L577.148 319.599C578.569 313.34 580.582 306.679 583.29 299.131Z" fill="#A8CFCC"/>
<path d="M602.428 307.965C608.299 307.965 613.058 302.983 613.058 296.839C613.058 290.694 608.299 285.713 602.428 285.713C596.556 285.713 591.797 290.694 591.797 296.839C591.797 302.983 596.556 307.965 602.428 307.965Z" fill="#82B5B2"/>
<path d="M671.396 301.228C684.346 301.228 694.844 290.73 694.844 277.781C694.844 264.831 684.346 254.334 671.396 254.334C658.447 254.334 647.949 264.831 647.949 277.781C647.949 290.73 658.447 301.228 671.396 301.228Z" fill="#008CFF"/>
<path fill-rule="evenodd" clip-rule="evenodd" d="M655.762 260.279C659.909 256.582 665.374 254.334 671.358 254.334C684.301 254.334 694.806 264.84 694.806 277.781C694.806 282.221 693.569 286.375 691.424 289.914C674.012 282.092 676.563 263.219 676.563 263.219C666.992 266.346 659.843 263.179 655.762 260.279Z" fill="black"/>
<path fill-rule="evenodd" clip-rule="evenodd" d="M570.782 575.79C570.782 575.79 563.926 562.525 570.782 552.587L558.612 531.203C558.612 531.203 552.697 527.415 545.98 523.11C530.793 513.378 522.082 496.178 523.22 478.18C523.308 476.808 523.465 475.55 523.703 474.45C516.719 467.861 510.951 453.071 513.074 438.92C516.028 419.21 532.4 404.275 552.298 403.141C584.318 401.325 639.271 400.084 673.055 409.772L665.457 390.855C665.457 390.855 611.394 410.187 597.7 365.793C566.664 378.325 532.104 387.486 497.931 392.443C483.645 394.522 469.549 387.596 462.466 375.015C462.451 375.024 462.451 375.024 462.451 375.024C456.459 364.382 458.374 351.042 467.115 342.514C475.903 334.035 490.892 323.066 516.489 310.447C516.489 310.447 542.129 296.888 557.144 288.949C563.853 285.402 571.807 285.093 578.769 288.109C593.56 294.516 617.997 305.102 617.997 305.102L620.852 297.896C637.821 300.722 654.494 305.863 670.841 312.224C688.202 319.002 701.653 333.139 707.558 350.812C722.096 394.333 749.549 477.895 753.151 498.828H763.443C769.227 498.828 774.238 502.84 775.5 508.484C776.485 512.894 777.437 517.151 777.437 517.151C777.437 517.151 783.992 524.483 785.91 531.203C786.69 533.941 782.323 537.133 777.437 532.005C775.991 530.486 761.95 519.406 755.643 518.714C750.819 518.184 746.551 517.631 742.572 517.144C730.358 515.647 719.516 508.597 713.187 498.037C708.956 490.98 705.065 484.487 705.065 484.487C705.065 484.487 691.873 505.643 655.661 501.826L661.287 574.959C661.287 574.959 654.062 573.249 651.646 561.441C651.646 561.441 610.837 556.006 587.594 546.163C587.594 546.163 578.425 555.266 570.782 575.79Z" fill="url(#paint2_linear_57:2394)"/>
<path fill-rule="evenodd" clip-rule="evenodd" d="M752.966 497.78C753.036 498.146 753.098 498.494 753.156 498.827H758.028C760.386 500.481 763.969 503.08 767.853 506.177L769.101 504.771C769.639 504.167 770.565 504.112 771.169 504.65C771.773 505.185 771.828 506.111 771.29 506.715L770.129 508.021C772.333 509.841 774.573 511.788 776.692 513.786L777.443 517.15L753.588 499.325C753.065 498.98 752.834 498.355 752.966 497.78Z" fill="#008CFF"/>
<path fill-rule="evenodd" clip-rule="evenodd" d="M613.833 554.309L634.107 496.747C634.444 495.792 635.491 495.29 636.443 495.627C637.394 495.964 637.896 497.007 637.563 497.962L617.416 555.151C616.227 554.88 615.033 554.598 613.833 554.309ZM558.697 531.202C558.697 531.202 566.545 535.422 573.298 538.914C581.856 543.347 590.82 547.49 587.68 546.161C587.68 546.161 586.805 547.033 585.37 548.837C577.673 545.389 568.811 540.74 562.017 537.036L558.697 531.202ZM520.996 471.288C526.871 443.109 548.833 427.098 574.382 418.193C610.495 405.604 653.734 407.31 667.259 408.24C669.246 408.708 672.134 409.328 673.994 409.859C674.1 410.122 674.916 410.627 674.887 410.928C674.781 411.933 676.175 412.668 675.169 412.565C675.169 412.565 619.012 409.016 575.586 421.649C548.624 429.492 529.986 449.03 523.789 474.449C522.83 473.543 521.893 472.482 520.996 471.288Z" fill="#008CFF"/>
<path fill-rule="evenodd" clip-rule="evenodd" d="M656.031 505.445C649.285 504.409 640.727 501.602 631.701 497.93C605.251 487.184 574.633 469.198 574.633 469.198C573.762 468.686 573.472 467.564 573.981 466.693C574.494 465.822 575.617 465.53 576.489 466.042C576.489 466.042 606.847 483.882 633.077 494.541C642.543 498.388 656.525 501.909 655.705 501.825L656.031 505.445Z" fill="#008CFF"/>
<path fill-rule="evenodd" clip-rule="evenodd" d="M670.969 404.572L665.457 390.855C665.457 390.855 611.394 410.187 597.7 365.793C566.664 378.325 532.104 387.486 497.931 392.443C483.645 394.522 469.549 387.596 462.466 375.015C462.451 375.024 462.451 375.024 462.451 375.024C456.459 364.382 458.374 351.042 467.115 342.514C475.903 334.035 490.892 323.066 516.489 310.447C516.489 310.447 542.129 296.888 557.144 288.949C563.853 285.402 571.807 285.093 578.769 288.109C593.56 294.516 617.997 305.102 617.997 305.102L620.852 297.896C637.821 300.722 654.494 305.863 670.841 312.224C688.202 319.002 701.653 333.139 707.558 350.812C716.291 376.951 729.681 417.533 739.761 450.314L697.623 463.163C688.484 443.995 679.216 424.983 671.115 404.596L670.969 404.572Z" fill="#008CFF"/>
<path fill-rule="evenodd" clip-rule="evenodd" d="M657.858 393.006C656.519 386.313 656.204 379.289 656.328 372.123C656.332 371.729 656.617 371.394 657.005 371.322C657.393 371.249 657.778 371.458 657.928 371.823C661.5 380.531 670.248 401.844 670.248 401.844H670.113L665.699 390.857C665.699 390.857 662.664 391.941 657.858 393.006ZM542.009 349.702L497.027 375.041C496.145 375.537 495.834 376.654 496.328 377.534C496.826 378.414 497.942 378.726 498.825 378.23L543.806 352.891C544.688 352.395 544.999 351.278 544.502 350.398C544.008 349.518 542.891 349.206 542.009 349.702ZM588.469 369.474C590.172 357.164 594.22 348.531 597.038 343.769C597.218 343.506 597.565 343.416 597.855 343.557C598.14 343.697 598.283 344.027 598.184 344.332C595.274 354.792 597.774 365.129 597.935 365.764L597.942 365.795C594.82 367.056 591.661 368.282 588.469 369.474Z" fill="#0063B3"/>
<path fill-rule="evenodd" clip-rule="evenodd" d="M518.555 309.408L557.244 288.949C563.954 285.402 571.908 285.093 578.869 288.109L617.032 304.642C617.288 304.812 617.522 304.966 617.731 305.102C624.093 309.271 619.067 313.393 617.288 312.804C621.633 314.869 621.487 318.3 620.462 319.787C618.774 322.24 612.735 321.345 612.735 321.345C614.415 321.944 615.956 325.223 614.653 327.655C612.559 331.564 606.831 329.189 606.831 329.189C607.87 334.641 602.233 334.659 595.356 333.203C590.03 332.075 587.588 330.882 583.057 329.751C575.733 349.282 553.862 347.026 553.862 347.026L539.451 355.196L518.555 309.408Z" fill="url(#paint3_linear_57:2394)"/>
<path fill-rule="evenodd" clip-rule="evenodd" d="M606.969 329.302L582.477 319.795C581.723 319.502 581.35 318.653 581.643 317.9C581.936 317.147 582.785 316.772 583.539 317.065L613.846 328.831C611.35 331.014 606.947 329.188 606.947 329.188C606.954 329.227 606.961 329.264 606.969 329.302ZM613.22 321.521L585.376 310.711C584.622 310.419 584.249 309.57 584.542 308.817C584.835 308.063 585.684 307.689 586.438 307.982L618.352 320.372C618.645 320.485 618.879 320.682 619.04 320.926C616.624 321.904 612.851 321.344 612.851 321.344C612.975 321.389 613.1 321.448 613.22 321.521ZM617.701 312.857L588.715 301.604C587.96 301.312 587.583 300.462 587.876 299.709C588.169 298.956 589.018 298.582 589.772 298.874L620.622 310.85C619.981 312.113 618.601 312.91 617.701 312.857Z" fill="#008CFF"/>
<path fill-rule="evenodd" clip-rule="evenodd" d="M529.808 734.205C527.736 732.81 526.367 730.442 526.367 727.759V712.235C526.367 707.953 529.844 704.475 534.131 704.475H651.997C656.279 704.475 659.757 707.953 659.757 712.235V727.759C659.757 730.442 658.391 732.81 656.316 734.205C658.391 735.599 659.757 737.967 659.757 740.65V756.174C659.757 760.46 656.279 763.937 651.997 763.937H534.131C529.844 763.937 526.367 760.46 526.367 756.174V740.65C526.367 737.967 527.736 735.599 529.808 734.205Z" fill="#FFDBA3"/>
<path fill-rule="evenodd" clip-rule="evenodd" d="M624.767 731.06H659.258C658.658 732.338 657.717 733.425 656.553 734.205C656.791 734.366 657.018 734.538 657.237 734.721H646.062V763.937H642.402V734.721H611.805V763.937H608.145V734.721H603.475V763.937H599.814V734.721H552.552V763.937H548.892V734.721H529.364C529.58 734.538 529.807 734.366 530.045 734.205C528.885 733.425 527.944 732.338 527.344 731.06H570.188V704.475H573.848V731.06H578.518V704.475H582.179V731.06H621.106V704.475H624.767V731.06Z" fill="#FDA425"/>
</g>
<defs>
<linearGradient id="paint0_linear_57:2394" x1="317.795" y1="609.936" x2="317.052" y2="819.155" gradientUnits="userSpaceOnUse">
<stop stop-color="#A8CFCC"/>
<stop offset="1" stop-color="#59A09B"/>
</linearGradient>
<linearGradient id="paint1_linear_57:2394" x1="341.821" y1="445.98" x2="351.489" y2="631.721" gradientUnits="userSpaceOnUse">
<stop stop-color="#82B5B2"/>
<stop offset="0.45" stop-color="#A7C6C1"/>
<stop offset="1" stop-color="#FFF0E6"/>
</linearGradient>
<linearGradient id="paint2_linear_57:2394" x1="684.56" y1="483.996" x2="478.085" y2="301.034" gradientUnits="userSpaceOnUse">
<stop stop-color="#3294E4"/>
<stop offset="0.48" stop-color="#54ACF4"/>
<stop offset="1" stop-color="#9CD2FF"/>
</linearGradient>
<linearGradient id="paint3_linear_57:2394" x1="589.263" y1="333.289" x2="540.193" y2="276.178" gradientUnits="userSpaceOnUse">
<stop stop-color="#3294E4"/>
<stop offset="0.48" stop-color="#54ACF4"/>
<stop offset="1" stop-color="#9CD2FF"/>
</linearGradient>
<clipPath id="clip0_57:2394">
<rect width="1000" height="1000" fill="white"/>
</clipPath>
</defs>
</svg>
